# Blender 3.3.1
# www.blender.org
mtllib doorD.mtl
o doorD
v 0.007092 -0.000011 0.001496
v 0.007092 -0.000011 0.001496
v 0.007092 -0.000011 0.001496
v 0.007092 -0.000011 0.001496
v -0.001275 -0.000011 0.277806
v -0.001275 -0.000011 0.277806
v -0.001275 -0.000011 0.277806
v -0.001275 0.247489 0.277806
v -0.001275 0.247489 0.277806
v -0.001275 0.247489 0.277806
v -0.001275 0.247489 0.277806
v 0.007092 0.247489 0.001496
v 0.007092 0.247489 0.001496
v 0.007092 0.247489 0.001496
v 0.017086 -0.000011 0.001899
v 0.017086 -0.000011 0.001899
v 0.017086 -0.000011 0.001899
v 0.008719 -0.000011 0.278209
v 0.008719 -0.000011 0.278209
v 0.008719 -0.000011 0.278209
v 0.017086 0.247489 0.001899
v 0.017086 0.247489 0.001899
v 0.017086 0.247489 0.001899
v 0.008719 0.247489 0.278209
v 0.008719 0.247489 0.278209
v 0.008719 0.247489 0.278209
vn -0.0000 -1.0000 -0.0000
vn -0.9995 -0.0000 -0.0303
vn 0.0403 -0.0000 -0.9992
vn 0.9995 -0.0000 0.0303
vn -0.0000 1.0000 -0.0000
vn -0.0403 -0.0000 0.9992
vt 0.687592 0.656667
vt 0.313336 0.343333
vt 0.313336 0.343333
vt 0.343333 0.010000
vt 0.676667 0.343789
vt 0.010000 0.343333
vt 0.010000 0.010000
vt 0.010000 0.656667
vt 0.010000 0.656667
vt 0.010000 0.323333
vt 0.343333 0.343789
vt 0.313336 0.656667
vt 0.343333 0.323333
vt 0.354259 0.656667
vt 0.700643 0.656211
vt 0.355986 0.010000
vt 0.980002 0.010000
vt 0.689717 0.343333
vt 0.676667 0.010000
vt 0.022652 0.010000
vt 0.980002 0.323333
vt 0.355986 0.323333
vt 0.367309 0.656211
vt 0.676667 0.323333
vt 0.356384 0.343333
vt 0.022652 0.323333
s 0
f 5/5/1 1/1/1 15/15/1
f 2/2/2 6/6/2 8/8/2
f 9/9/2 12/12/2 3/3/2
f 16/16/3 4/4/3 13/13/3
f 15/15/1 18/18/1 5/5/1
f 19/19/4 17/17/4 21/21/4
f 13/13/3 22/22/3 16/16/3
f 21/21/4 24/24/4 19/19/4
f 25/25/5 23/23/5 14/14/5
f 26/26/6 10/10/6 7/7/6
f 14/14/5 11/11/5 25/25/5
f 7/7/6 20/20/6 26/26/6
